<svg width="26" height="30" viewBox="0 0 26 30" fill="none" xmlns="http://www.w3.org/2000/svg">
<path d="M5.85686 10V7.14286C5.85686 5.24845 6.60941 3.43164 7.94896 2.09209C9.2885 0.752549 11.1053 0 12.9997 0C14.8941 0 16.7109 0.752549 18.0505 2.09209C19.39 3.43164 20.1426 5.24845 20.1426 7.14286V10H24.4283C24.8072 10 25.1705 10.1505 25.4384 10.4184C25.7064 10.6863 25.8569 11.0497 25.8569 11.4286V28.5714C25.8569 28.9503 25.7064 29.3137 25.4384 29.5816C25.1705 29.8495 24.8072 30 24.4283 30H1.57115C1.19227 30 0.828906 29.8495 0.560997 29.5816C0.293088 29.3137 0.142578 28.9503 0.142578 28.5714V11.4286C0.142578 11.0497 0.293088 10.6863 0.560997 10.4184C0.828906 10.1505 1.19227 10 1.57115 10H5.85686ZM5.85686 12.8571H2.99972V27.1429H22.9997V12.8571H20.1426V15.7143H17.2854V12.8571H8.71401V15.7143H5.85686V12.8571ZM8.71401 10H17.2854V7.14286C17.2854 6.00622 16.8339 4.91613 16.0302 4.1124C15.2265 3.30867 14.1364 2.85714 12.9997 2.85714C11.8631 2.85714 10.773 3.30867 9.96926 4.1124C9.16553 4.91613 8.71401 6.00622 8.71401 7.14286V10Z" fill="#F6F3E8"/>
</svg>
